<?xml version="1.0" standalone="no"?>
<!DOCTYPE svg PUBLIC "-//W3C//DTD SVG 20010904//EN"
 "http://www.w3.org/TR/2001/REC-SVG-20010904/DTD/svg10.dtd">
<svg version="1.0" xmlns="http://www.w3.org/2000/svg"
 width="500.000000pt" height="500.000000pt" viewBox="0 0 500.000000 500.000000"
 preserveAspectRatio="xMidYMid meet">
<metadata>
Created by potrace 1.14, written by Peter Selinger 2001-2017
</metadata>
<g transform="translate(0.000000,500.000000) scale(0.100000,-0.100000)"
fill="#000000" stroke="none">
<path d="M3215 3576 c-122 -56 -229 -155 -606 -557 l-268 -286 -98 -26 c-267
-71 -535 -97 -772 -76 -205 18 -241 18 -255 -3 -14 -24 2 -50 37 -59 56 -15
234 -29 366 -29 195 0 384 22 566 65 28 7 26 4 -30 -55 -54 -56 -228 -208
-346 -302 -61 -49 -281 -192 -319 -208 -28 -12 -40 -8 -188 58 -322 144 -390
165 -537 166 -97 1 -116 -2 -158 -23 -29 -14 -61 -41 -79 -65 -28 -38 -29 -46
-26 -113 3 -62 7 -77 34 -110 69 -86 159 -125 328 -145 154 -17 325 12 516 88
l88 35 39 -19 c76 -39 326 -133 431 -162 133 -38 266 -60 357 -60 184 1 387
84 603 248 l77 59 -3 -56 c-7 -133 87 -178 271 -131 199 50 641 253 880 402
54 35 64 71 24 89 -20 9 -34 5 -93 -32 -199 -122 -527 -276 -748 -351 -184
-62 -256 -56 -256 22 0 55 90 191 241 362 66 75 77 92 70 111 -5 13 -18 23
-32 25 -19 2 -47 -21 -139 -120 -262 -278 -532 -469 -740 -523 -52 -14 -92
-16 -195 -12 -186 8 -331 47 -618 167 l-79 33 64 37 c168 97 397 281 623 501
144 141 156 150 226 175 96 34 312 139 415 201 372 226 623 540 531 664 -34
45 -122 52 -202 15z m133 -89 c12 -100 -172 -303 -429 -476 -81 -55 -317 -180
-369 -196 -15 -5 45 65 172 201 311 331 423 434 523 481 66 31 99 28 103 -10z
m-2518 -1308 c36 -5 99 -22 140 -36 83 -28 360 -149 374 -163 11 -11 -158 -65
-257 -80 -112 -18 -286 -8 -361 20 -85 32 -137 83 -143 141 -7 60 22 95 92
114 62 17 75 17 155 4z"/>
<path d="M4556 2744 c-19 -19 -19 -19 -2 -52 18 -33 87 -100 141 -136 43 -28
74 -33 93 -14 24 24 12 48 -40 82 -29 19 -75 57 -101 85 -52 54 -66 60 -91 35z"/>
<path d="M3496 2655 c-52 -56 -80 -106 -69 -123 21 -34 57 -26 95 20 54 66 60
81 42 106 -20 29 -40 28 -68 -3z"/>
</g>
</svg>
